<svg width="28" height="20" viewBox="0 0 28 20" fill="none" xmlns="http://www.w3.org/2000/svg">
    <path
        d="M8.33349 1.9627C8.9188 1.35206 9.74425 1 10.6147 1H23.8921C25.6338 1 27 2.36808 27 4V16C27 17.6319 25.6338 19 23.8921 19H10.6147C9.74425 19 8.9188 18.6479 8.33348 18.0373L1.27433 10.6727C0.908558 10.2911 0.908558 9.70894 1.27433 9.32734L8.33349 1.9627Z"
        stroke="#4971D0" stroke-width="2" />
    <path fill-rule="evenodd" clip-rule="evenodd"
        d="M21.849 6.36385C22.2396 5.97332 22.2396 5.34016 21.849 4.94963C21.4585 4.55911 20.8254 4.55911 20.4348 4.94963L16.8993 8.4852L13.3638 4.94978C12.9733 4.55926 12.3402 4.55926 11.9496 4.94978C11.5591 5.34031 11.5591 5.97347 11.9496 6.364L15.485 9.89941L11.9496 13.4349C11.559 13.8254 11.559 14.4586 11.9496 14.8491C12.3401 15.2396 12.9732 15.2397 13.3638 14.8491L16.8993 11.3136L20.4349 14.8493C20.8254 15.2398 21.4586 15.2398 21.8491 14.8493C22.2397 14.4588 22.2397 13.8256 21.8491 13.4351L18.3135 9.89941L21.849 6.36385Z"
        fill="#4971D0" />
</svg>
