<svg width="28" height="20" viewBox="0 0 28 20" fill="none" xmlns="http://www.w3.org/2000/svg">
    <path
        d="M7.61157 1.27073C8.38848 0.460185 9.47605 0 10.6147 0H23.8921C26.1608 0 28 1.79086 28 4V16C28 18.2091 26.1608 20 23.8921 20H10.6147C9.47605 20 8.38848 19.5398 7.61156 18.7293L0.552405 11.3646C-0.184135 10.5962 -0.184135 9.40378 0.552406 8.63536L7.61157 1.27073Z"
        fill="#4971D0" />
    <path fill-rule="evenodd" clip-rule="evenodd"
        d="M21.849 6.36385C22.2396 5.97332 22.2396 5.34016 21.849 4.94963C21.4585 4.55911 20.8254 4.55911 20.4348 4.94963L16.8993 8.4852L13.3638 4.94978C12.9733 4.55926 12.3402 4.55926 11.9496 4.94978C11.5591 5.34031 11.5591 5.97347 11.9496 6.364L15.485 9.89941L11.9496 13.4349C11.559 13.8254 11.559 14.4586 11.9496 14.8491C12.3401 15.2396 12.9732 15.2397 13.3638 14.8491L16.8993 11.3136L20.4349 14.8493C20.8254 15.2398 21.4586 15.2398 21.8491 14.8493C22.2397 14.4588 22.2397 13.8256 21.8491 13.4351L18.3135 9.89941L21.849 6.36385Z"
        fill="white" />
</svg>
